<svg xmlns="http://www.w3.org/2000/svg" width="243.271" height="473.388" viewBox="0 0 243.271 473.388"><defs><style>.a{fill:#fff;}</style></defs><g transform="translate(-1108.52 -223.461)"><path class="a" d="M422.063,426.721c8.9-20.778,0-58.409-19.345-85.635a86.248,86.248,0,0,0-34.356-28.931A170.825,170.825,0,0,0,292.178,295.1H290.54v3.855a153.186,153.186,0,0,1,38.177,13.033,86.247,86.247,0,0,1,34.356,28.932c19.345,27.294,28.249,64.823,19.345,85.635,30.3,59.023,67.314,59.91,10.849,73.045v1.023a10.194,10.194,0,0,0,.1,16.752v.853a10.474,10.474,0,0,1-7.847,15.353c10.986,9.723,10.235,17.059-3.992,24.394,13.647,45.683,13.988,48.754-43.5,55.1v.239a36.062,36.062,0,0,0-27.294,23.643l76.184,99.623a262.5,262.5,0,0,1,64.038,31.9L350.382,636.953a36.13,36.13,0,0,1,27.294-23.643v-.239c57.488-6.346,57.215-9.416,43.5-55.1,14.227-7.335,14.978-14.67,3.958-24.394a10.44,10.44,0,0,0,7.881-15.353v-.819a10.235,10.235,0,0,1,0-16.786V499.6C489.376,486.631,452.461,485.847,422.063,426.721Z" transform="translate(889.456 -71.626)"/><path class="a" d="M269.59,295.153a170.587,170.587,0,0,1,75.058,16.854,70.724,70.724,0,0,1,25.281,18.116,66.871,66.871,0,0,1,8.9,10.815c19.345,27.294,28.249,64.823,19.379,85.635,30.262,59.023,67.314,59.944,10.849,73.045v1.023a10.235,10.235,0,0,0,0,16.786,6.823,6.823,0,0,0,0,.819,10.237,10.237,0,0,1,1.228,4.845,10.781,10.781,0,0,1-9.109,10.542c11.02,9.689,10.235,17.059-3.958,24.36,13.647,45.683,13.954,48.754-43.5,55.1v.239a36.2,36.2,0,0,0-27.294,23.643l68.235,89.388a250.8,250.8,0,0,0-122.243,9.417,648.986,648.986,0,0,0,35.823-215.964c0-82.189-14.125-159.055-38.655-224.561" transform="translate(838.93 -71.478)"/></g></svg>